<?xml version="1.0" encoding="utf-8"?>
<!-- Generator: Adobe Illustrator 22.0.0, SVG Export Plug-In . SVG Version: 6.00 Build 0)  -->
<svg version="1.1" id="Layer_1" xmlns="http://www.w3.org/2000/svg" xmlns:xlink="http://www.w3.org/1999/xlink" x="0px" y="0px"
	 viewBox="0 0 1080 1080" style="enable-background:new 0 0 1080 1080;" xml:space="preserve">
<style type="text/css">
	.st0{fill:#020202;}
</style>
<g>
	<path class="st0" d="M235.7,248.7c0-4.3,3.3-7.6,7.6-7.5c4.1,0.1,7.4,3.3,7.4,7.4c0,4.2-3.5,7.6-7.6,7.6
		C239,256.1,235.8,252.8,235.7,248.7z"/>
	<path d="M448.2,160.3c0.5-0.2,0.9-0.4,1.2-0.6c2.3-1.6,4.6-3,7.2-4.2c0.9-0.4,1.8-0.8,2.7-1c1.7-0.5,3.3,0,4.7,0.9
		c1.1,0.7,1.4,1.9,1,3.2c-0.8,2.5-2.2,4.7-4.1,6.5c-0.3,0.2-0.5,0.5-0.8,0.7c-2.4,2.5-5,4.7-7.8,6.7c-1.8,1.2-3.6,2.3-5.4,3.5
		c-0.3,0.2-0.7,0.4-1.1,0.6c-0.6,0.3-1.3,0.3-1.9,0.2c-1.5-0.4-2.6-1.3-3.4-2.6c-2.4-4-4.3-8.3-5.7-12.8c-0.5-1.6-0.7-3.2-0.9-4.9
		c-0.1-1.3,0.1-2.6,0.4-3.8c0.4-1.7,2-3,3.7-3.2c0.4,0,0.9,0,1.3,0.2c0.6,0.2,1.2,0.5,1.9,0.8c1.2,0.5,2.2,1.3,3,2.3
		c1,1.2,1.7,2.6,2.3,4.1c0.3,0.7,0.6,1.4,0.9,2.1C447.6,159.3,447.9,159.7,448.2,160.3z"/>
	<path class="st0" d="M249.6,899.3c-0.1-8.3,6.5-14.8,14.9-14.7c8,0.1,14.5,6.5,14.5,14.5c0.1,8.2-6.8,15-15,14.8
		C256,913.8,249.7,907.3,249.6,899.3z"/>
	<path class="st0" d="M717.6,633.3c0-6.7,5.2-11.8,11.9-11.7c6.4,0.1,11.5,5.2,11.6,11.6c0,6.5-5.4,11.9-11.9,11.8
		C722.7,644.8,717.6,639.7,717.6,633.3z"/>
	<path class="st0" d="M322.8,285.8c0-5.4,4.2-9.7,9.7-9.6c5.2,0.1,9.4,4.3,9.5,9.4c0,5.3-4.4,9.8-9.8,9.7
		C327,295.2,322.9,291,322.8,285.8z"/>
	<path class="st0" d="M822.8,177.8c0-5.6,4.4-9.9,10-9.8c5.4,0.1,9.7,4.4,9.7,9.7c0,5.5-4.6,10-10,9.9
		C827.1,187.4,822.8,183.1,822.8,177.8z"/>
	<path class="st0" d="M641.9,270.8c0-3.2,2.5-5.8,5.8-5.7c3.1,0,5.6,2.5,5.6,5.6c0,3.2-2.6,5.8-5.8,5.7
		C644.4,276.4,642,273.9,641.9,270.8z"/>
	<path class="st0" d="M428.1,278.9c0-3.2,2.5-5.8,5.8-5.7c3.1,0,5.6,2.5,5.6,5.6c0,3.2-2.6,5.8-5.8,5.7
		C430.6,284.5,428.2,282,428.1,278.9z"/>
	<path class="st0" d="M701.8,116.5c0-3.2,2.5-5.6,5.7-5.6c3,0,5.5,2.5,5.5,5.5c0,3.1-2.6,5.7-5.7,5.6
		C704.2,122,701.8,119.6,701.8,116.5z"/>
	<path class="st0" d="M856.6,308.6c0-3.6,2.8-6.4,6.4-6.3c3.4,0,6.2,2.8,6.2,6.2c0,3.5-2.9,6.4-6.4,6.4
		C859.4,314.8,856.6,312,856.6,308.6z"/>
	<path class="st0" d="M592.3,176.8c0-3.6,2.8-6.4,6.4-6.3c3.4,0,6.2,2.8,6.2,6.2c0,3.5-2.9,6.4-6.4,6.4
		C595.1,183,592.3,180.3,592.3,176.8z"/>
	<path class="st0" d="M313.8,192.6c0-1.6,1.2-2.8,2.8-2.8c1.5,0,2.7,1.2,2.7,2.7c0,1.5-1.3,2.8-2.8,2.8
		C315,195.3,313.8,194.1,313.8,192.6z"/>
	<path class="st0" d="M839.7,139.8c0-1.6,1.2-2.8,2.8-2.8c1.5,0,2.7,1.2,2.7,2.7c0,1.5-1.3,2.8-2.8,2.8
		C840.9,142.5,839.7,141.3,839.7,139.8z"/>
	<path class="st0" d="M456.9,111.7c0-1.6,1.2-2.8,2.8-2.8c1.5,0,2.7,1.2,2.7,2.7c0,1.5-1.3,2.8-2.8,2.8
		C458.1,114.4,456.9,113.2,456.9,111.7z"/>
	<path class="st0" d="M539.6,270.8c0-1.6,1.2-2.8,2.8-2.8c1.5,0,2.7,1.2,2.7,2.7c0,1.5-1.3,2.8-2.8,2.8
		C540.8,273.5,539.6,272.3,539.6,270.8z"/>
	<path class="st0" d="M790,286.3c0-1.6,1.2-2.8,2.8-2.8c1.5,0,2.7,1.2,2.7,2.7c0,1.5-1.3,2.8-2.8,2.8C791.2,289,790,287.8,790,286.3
		z"/>
	<path class="st0" d="M609.9,124.8c0-3.9,3-6.9,6.9-6.8c3.7,0.1,6.7,3,6.7,6.7c0,3.8-3.2,6.9-6.9,6.9
		C612.9,131.5,610,128.5,609.9,124.8z"/>
	<path class="st0" d="M812.3,691.7c0-5.8,4.6-10.4,10.4-10.3c5.6,0.1,10.1,4.6,10.2,10.1c0,5.7-4.8,10.5-10.5,10.4
		C816.8,701.8,812.3,697.3,812.3,691.7z"/>
	<path class="st0" d="M451.2,654.5c0-3.9,3-6.9,6.9-6.9c3.7,0.1,6.7,3,6.8,6.7c0,3.8-3.2,7-7,6.9
		C454.1,661.2,451.2,658.2,451.2,654.5z"/>
	<path class="st0" d="M681.4,691.7c0-3.9,3-6.9,6.9-6.9c3.7,0.1,6.7,3,6.8,6.7c0,3.8-3.2,7-7,6.9
		C684.4,698.4,681.5,695.4,681.4,691.7z"/>
	<path class="st0" d="M526.2,609.2c0-3.3,2.6-5.8,5.9-5.8c3.2,0,5.7,2.6,5.7,5.7c0,3.2-2.7,5.9-5.9,5.8
		C528.8,614.9,526.3,612.3,526.2,609.2z"/>
	<path class="st0" d="M373.6,598.1c0-2.3,1.8-4,4-4c2.2,0,3.9,1.8,3.9,3.9c0,2.2-1.8,4.1-4.1,4C375.4,602,373.7,600.3,373.6,598.1z"
		/>
	<path class="st0" d="M235.9,729.4c0-3.9,3-6.9,6.9-6.9c3.7,0.1,6.7,3,6.8,6.7c0,3.8-3.2,7-7,6.9
		C238.9,736.1,235.9,733.1,235.9,729.4z"/>
	<path class="st0" d="M797.8,916.8c0-3.9,3-6.9,6.9-6.9c3.7,0.1,6.7,3,6.8,6.7c0,3.8-3.2,7-7,6.9
		C800.8,923.5,797.8,920.5,797.8,916.8z"/>
	<path d="M840.4,858.1c0.7-0.4,1.3-0.5,1.7-0.9c3.3-2.4,6.8-4.4,10.5-6.1c1.3-0.6,2.6-1.2,4-1.5c2.5-0.7,4.8,0,6.9,1.3
		c1.7,1.1,2.1,2.7,1.5,4.6c-1.2,3.7-3.3,6.8-6.1,9.5c-0.4,0.4-0.8,0.7-1.1,1.1c-3.4,3.7-7.3,6.9-11.5,9.8c-2.6,1.8-5.3,3.4-7.9,5.1
		c-0.5,0.3-1,0.6-1.5,0.9c-0.9,0.4-1.8,0.5-2.9,0.2c-2.2-0.6-3.9-1.8-5-3.8c-3.5-5.9-6.2-12.2-8.4-18.8c-0.8-2.3-1.1-4.7-1.3-7.1
		c-0.1-1.9,0.2-3.8,0.6-5.6c0.6-2.5,3-4.5,5.5-4.6c0.6,0,1.3,0.1,1.9,0.3c0.9,0.3,1.8,0.7,2.7,1.1c1.8,0.8,3.3,1.9,4.5,3.4
		c1.4,1.8,2.5,3.8,3.4,5.9c0.4,1,0.8,2.1,1.3,3.1C839.5,856.7,839.9,857.3,840.4,858.1z"/>
	<path d="M247.7,810.6c0.7-0.4,1.3-0.5,1.7-0.9c3.3-2.4,6.8-4.4,10.5-6.1c1.3-0.6,2.6-1.2,4-1.5c2.5-0.7,4.8,0,6.9,1.3
		c1.7,1.1,2.1,2.7,1.5,4.6c-1.2,3.7-3.3,6.8-6.1,9.5c-0.4,0.4-0.8,0.7-1.1,1.1c-3.4,3.7-7.3,6.9-11.5,9.8c-2.6,1.8-5.3,3.4-7.9,5.1
		c-0.5,0.3-1,0.6-1.5,0.9c-0.9,0.4-1.8,0.5-2.9,0.2c-2.2-0.6-3.9-1.8-5-3.8c-3.5-5.9-6.2-12.2-8.4-18.8c-0.8-2.3-1.1-4.7-1.3-7.1
		c-0.1-1.9,0.2-3.8,0.6-5.6c0.6-2.5,3-4.5,5.5-4.6c0.6,0,1.3,0.1,1.9,0.3c0.9,0.3,1.8,0.7,2.7,1.1c1.8,0.8,3.3,1.9,4.5,3.4
		c1.4,1.8,2.5,3.8,3.4,5.9c0.4,1,0.8,2.1,1.3,3.1C246.9,809.1,247.2,809.7,247.7,810.6z"/>
	<path d="M480.7,315.9c0.7-0.4,1.3-0.5,1.7-0.9c3.3-2.4,6.8-4.4,10.5-6.1c1.3-0.6,2.6-1.2,4-1.5c2.5-0.7,4.8,0,6.9,1.3
		c1.7,1.1,2.1,2.7,1.5,4.6c-1.2,3.7-3.3,6.8-6.1,9.5c-0.4,0.4-0.8,0.7-1.1,1.1c-3.4,3.7-7.3,6.9-11.5,9.8c-2.6,1.8-5.3,3.4-7.9,5.1
		c-0.5,0.3-1,0.6-1.5,0.9c-0.9,0.4-1.8,0.5-2.9,0.2c-2.2-0.6-3.9-1.8-5-3.8c-3.5-5.9-6.2-12.2-8.4-18.8c-0.8-2.3-1.1-4.7-1.3-7.1
		c-0.1-1.9,0.2-3.8,0.6-5.6c0.6-2.5,3-4.5,5.5-4.6c0.6,0,1.3,0.1,1.9,0.3c0.9,0.3,1.8,0.7,2.7,1.1c1.8,0.8,3.3,1.9,4.5,3.4
		c1.4,1.8,2.5,3.8,3.4,5.9c0.4,1,0.8,2.1,1.3,3.1C479.8,314.4,480.2,315,480.7,315.9z"/>
	<path d="M771.3,315.5c0.4-0.2,0.7-0.3,1-0.5c1.9-1.4,3.9-2.5,6-3.5c0.8-0.3,1.5-0.7,2.3-0.9c1.4-0.4,2.8,0,4,0.8
		c1,0.6,1.2,1.6,0.8,2.7c-0.7,2.1-1.9,3.9-3.5,5.4c-0.2,0.2-0.5,0.4-0.7,0.6c-2,2.1-4.2,4-6.6,5.6c-1.5,1-3,2-4.5,2.9
		c-0.3,0.2-0.6,0.3-0.9,0.5c-0.5,0.2-1.1,0.3-1.6,0.1c-1.3-0.3-2.2-1.1-2.9-2.2c-2-3.4-3.6-7-4.8-10.8c-0.4-1.3-0.6-2.7-0.7-4.1
		c-0.1-1.1,0.1-2.2,0.4-3.2c0.4-1.4,1.7-2.6,3.1-2.6c0.4,0,0.8,0,1.1,0.1c0.5,0.2,1,0.4,1.6,0.6c1,0.4,1.9,1.1,2.6,2
		c0.8,1,1.4,2.2,2,3.4c0.3,0.6,0.5,1.2,0.7,1.8C770.8,314.7,771,315,771.3,315.5z"/>
	<path d="M662.6,154.7c0.4-0.2,0.7-0.3,1-0.5c1.9-1.4,3.9-2.5,6-3.5c0.8-0.3,1.5-0.7,2.3-0.9c1.4-0.4,2.8,0,4,0.8
		c1,0.6,1.2,1.6,0.8,2.7c-0.7,2.1-1.9,3.9-3.5,5.4c-0.2,0.2-0.5,0.4-0.7,0.6c-2,2.1-4.2,4-6.6,5.6c-1.5,1-3,2-4.5,2.9
		c-0.3,0.2-0.6,0.3-0.9,0.5c-0.5,0.2-1.1,0.3-1.6,0.1c-1.3-0.3-2.2-1.1-2.9-2.2c-2-3.4-3.6-7-4.8-10.8c-0.4-1.3-0.6-2.7-0.7-4.1
		c-0.1-1.1,0.1-2.2,0.4-3.2c0.4-1.4,1.7-2.6,3.1-2.6c0.4,0,0.8,0,1.1,0.1c0.5,0.2,1,0.4,1.6,0.6c1,0.4,1.9,1.1,2.6,2
		c0.8,1,1.4,2.2,2,3.4c0.3,0.6,0.5,1.2,0.7,1.8C662.2,153.8,662.4,154.2,662.6,154.7z"/>
	<path d="M795.8,627.8c1.7-2.9,3.3-5,4.8-7.1c1.5-2.2,3-4.3,4.6-6.6c-1.8-5.1-3.6-10-5.4-14.9c0.6-0.9,1.3-0.5,1.9-0.3
		c4.6,1.4,9.1,2.8,13.9,4.3c1.4-1.1,2.9-2.2,4.3-3.4c1.4-1.1,2.7-2.1,4.1-3.2c1.4-1.1,2.7-2.4,4.7-3.3c0.4,2.2,0.3,3.9,0.3,5.5
		c0,1.7,0,3.5,0,5.2c0,1.7,0,3.4,0,5.2c1.9,2.3,4.5,3.4,6.8,5c2.1,1.6,4.4,3,6.9,4.7c-0.8,0.5-1.3,0.9-1.9,1.1
		c-3.9,1.4-7.8,2.7-11.7,4c-1.4,0.5-2.2,1.2-2.6,2.7c-1,3.7-2.1,7.4-3.1,11.1c-0.2,0.8-0.5,1.5-0.7,2.2c-1.2,0.3-1.4-0.7-1.9-1.2
		c-2.3-3.1-4.7-6.1-6.9-9.3c-1.1-1.6-2.5-2.1-4.4-2c-3.4,0.3-6.9,0.3-10.4,0.4C798.4,627.9,797.5,627.8,795.8,627.8z"/>
	<path d="M451.2,616.7c1.6-2.8,3.2-4.7,4.6-6.8c1.4-2.1,2.9-4.1,4.4-6.2c-1.7-4.8-3.5-9.5-5.1-14.2c0.6-0.8,1.2-0.4,1.8-0.3
		c4.3,1.3,8.7,2.6,13.2,4c1.3-1,2.7-2.1,4.1-3.2c1.3-1,2.6-2,3.9-3c1.3-1,2.6-2.2,4.5-3.2c0.4,2.1,0.2,3.7,0.3,5.3
		c0,1.6,0,3.3,0,4.9c0,1.6,0,3.3,0,4.9c1.8,2.1,4.3,3.2,6.4,4.8c2,1.5,4.2,2.8,6.5,4.4c-0.8,0.5-1.2,0.8-1.8,1
		c-3.7,1.3-7.4,2.6-11.1,3.8c-1.3,0.4-2.1,1.2-2.4,2.6c-0.9,3.5-2,7-3,10.6c-0.2,0.7-0.5,1.4-0.7,2c-1.1,0.2-1.4-0.7-1.8-1.2
		c-2.2-2.9-4.5-5.8-6.6-8.8c-1.1-1.5-2.3-2-4.2-1.9c-3.3,0.3-6.6,0.3-9.8,0.4C453.6,616.8,452.7,616.7,451.2,616.7z"/>
	<path d="M500.4,151.1c1.7-2.9,3.3-5,4.8-7.1c1.5-2.2,3-4.3,4.6-6.6c-1.8-5.1-3.6-10-5.4-14.9c0.6-0.9,1.3-0.5,1.9-0.3
		c4.6,1.4,9.1,2.8,13.9,4.3c1.4-1.1,2.9-2.2,4.3-3.4c1.4-1.1,2.7-2.1,4.1-3.2c1.4-1.1,2.7-2.4,4.7-3.3c0.4,2.2,0.3,3.9,0.3,5.5
		c0,1.7,0,3.5,0,5.2c0,1.7,0,3.4,0,5.2c1.9,2.3,4.5,3.4,6.8,5c2.1,1.6,4.4,3,6.9,4.7c-0.8,0.5-1.3,0.9-1.9,1.1
		c-3.9,1.4-7.8,2.7-11.7,4c-1.4,0.5-2.2,1.2-2.6,2.7c-1,3.7-2.1,7.4-3.1,11.1c-0.2,0.8-0.5,1.5-0.7,2.2c-1.2,0.3-1.4-0.7-1.9-1.2
		c-2.3-3.1-4.7-6.1-6.9-9.3c-1.1-1.6-2.5-2.1-4.4-2c-3.4,0.3-6.9,0.3-10.4,0.4C502.9,151.1,502,151.1,500.4,151.1z"/>
	<path d="M613.8,338.2c1.3-2.3,2.6-3.9,3.8-5.6c1.2-1.7,2.4-3.4,3.6-5.2c-1.4-4-2.9-7.9-4.2-11.7c0.5-0.7,1-0.4,1.5-0.2
		c3.6,1.1,7.1,2.2,10.9,3.3c1.1-0.9,2.3-1.7,3.4-2.6c1.1-0.8,2.1-1.7,3.2-2.5c1.1-0.9,2.1-1.8,3.7-2.6c0.3,1.7,0.2,3,0.2,4.3
		c0,1.4,0,2.7,0,4.1c0,1.3,0,2.7,0,4c1.5,1.8,3.6,2.6,5.3,3.9c1.7,1.2,3.4,2.3,5.4,3.7c-0.6,0.4-1,0.7-1.5,0.9
		c-3,1.1-6.1,2.1-9.1,3.1c-1.1,0.4-1.7,1-2,2.1c-0.8,2.9-1.6,5.8-2.5,8.7c-0.2,0.6-0.4,1.2-0.6,1.7c-0.9,0.2-1.1-0.5-1.5-1
		c-1.8-2.4-3.7-4.8-5.4-7.3c-0.9-1.3-1.9-1.7-3.4-1.5c-2.7,0.2-5.4,0.3-8.1,0.4C615.8,338.2,615.1,338.2,613.8,338.2z"/>
	<g>
		<path d="M505,707.4l3.5,5.1l3.9-4.7l6.7-7.1c7.9-8.3,15.7-16.5,11.8-23.6c-1.6-2.8-3.5-4.3-6.3-5.1c-2-0.8-3.9-0.8-5.9-0.4
			c-1.6,0.4-3.5,1.2-5.1,2l-2.8,2c-1.2-1.2-2.4-2-3.9-2.8c-2-1.2-3.5-2-5.5-2c-2.4-0.4-4.7,0-6.3,0.8c-2.4,0.8-3.9,2-5.1,4.3
			c-3.5,6.7,4.7,17.7,11,26.4C502.7,704.3,503.8,706.3,505,707.4z"/>
		<path d="M815.4,780.2c-7.9,23.6-17.7,42.9-29.1,54.7c-8.7,9.4-18.5,14.2-29.1,12.6c-8.3-2-13.4-14.2-15.7-30.7
			c-0.8-5.1-1.6-10.2-1.6-16.1c18.9-7.5,32.3-25.6,39.3-43.7c3.1-8.3,4.7-16.9,5.1-24.4c0-8.3-1.2-15.3-4.7-20.5
			c-3.1-5.1-7.9-8.3-14.2-8.7c-18.9-1.6-33.8,10.6-43.7,28.7c-5.9,10.2-9.4,22.4-11.4,35c-0.7,4.6-1.2,9.2-1.5,13.8
			c-9.1,26.1-23.9,33.9-39.8,38.1c3.5-9.8,6.7-19.7,8.7-29.5c3.5-15.7,4.7-31.9,3.1-44.8c-1.6-14.2-6.7-25.6-14.9-31.5
			c-7.9-5.9-18.5-7.1-27.1-2.8c-10.6,5.5-21.6,19.3-31.5,38.5c-8.3,16.1-15.7,36.2-22,58.2c0-15.7,1.2-34.2,2.8-53.9
			c14.2-15.7,47.6-61,60.6-96.8c3.1-9,5.1-17.7,5.1-25.6c0-8.3-2.4-15.7-7.9-20.8c-2.4-2.4-5.5-3.9-9-5.5c-5.9-2-11-2.8-16.1-2.4
			c-11,0.4-20.5,5.9-28.3,14.9c-7.5,8.7-13.4,20.5-18.1,33.8c-13.5,38-18.5,91.4-19.9,129.7c-2.8,8.4-8.2,24.5-14.7,39.1
			c-4.7,10.6-10.2,20.1-14.9,24.4c-1.2,1.2-2.4,0.8-2.8-0.4c-2-3.9-3.9-11.8-5.1-22c-1.6-16.1-1.6-37,0.8-57.8
			c0.8-9.8,2.4-19.3,3.9-28.3c1.2-5.9-3.1-11-9-13.8c-2.4-1.2-5.1-2-7.9-2.4c-2.8-0.4-5.5,0-7.9,0.4c-4.7,1.6-8.3,5.1-8.3,11
			c-2.6,18.3-3.7,34.8-3.9,49.1c0,0,0,0,0,0.1l-1.2,4.3c-7.1,21.6-19.3,60.2-36.6,62.5c-6.3,0.8-9.4-4.3-10.6-13
			c-3.5-26,10.6-76.7,17.7-102.7c4.3-14.9,0.8-20.5-16.9-23.6c-14.6-2.4-31.9-5.1-44.4-11c0-7.1,0-13.4-0.8-18.5
			c-1.6-7.5-5.9-12.2-10.6-13.8c-2.4-0.8-5.1-0.8-7.5,0c-2,0.4-4.3,2-5.9,3.9c-3.1,3.5-4.3,9.4-1.6,16.5c3.1,7.5,8.7,13.4,15.7,17.7
			c0,7.1-0.8,14.6-1.6,22.4c-2.8,18.9-7.1,40.9-11.8,55.1c0,0,0,0,0,0.1c-3.9,11.8-10.2,29.9-17.3,44.4c-6.3,13.4-13,24-18.1,22.8
			c-9.8-2.4-14.2-26.7-15.3-59c-1.6-43.7,3.1-100.3,7.1-134.5c9.8,2.8,19.3,5.5,28.3,6.7l3.9,0.8c20.1,2.4,37.4-1.2,48-20.1
			c2.8-4.7,2.4-8.7,0.8-11.8c-0.8-1.6-2-2.4-3.5-3.1c-1.2-0.8-2.8-1.2-4.3-1.2c-3.5-0.4-7.5,1.6-10.2,6.3
			c-3.1,5.5-11.4,20.1-28.3,19.7c-10.2-1.2-21.6-3.9-33.4-7.5l2.8-18.5c1.2-7.5-3.1-13-8.7-16.1c-2-1.2-4.7-2-7.1-2.4
			c-2.8,0-5.1,0-7.5,0.8c-4.3,1.6-7.5,5.1-7.5,10.6l-2.8,16.1c-31.5-8.7-61.8-12.2-81,14.6c-3.5,5.5-4.3,10.6-3.1,13.8
			c1.2,2.4,2.4,3.9,4.3,5.1c2,0.8,4.3,1.2,6.3,0.8c3.9-1.2,7.9-4.3,10.2-10.2c2-5.5,4.3-10.2,8.3-14.2c2.8-2.8,6.3-4.3,11-5.1
			c13-1.2,27.5,1.6,42.5,5.9c-3.9,29.5-7.5,72.8-6.3,112.1c0.4,24.4,3.1,47.6,8.7,65.3c5.9,18.9,15.7,31.9,30.3,35
			c2.4,0.4,4.7,0.4,7.1,0.4c10.2,0,19.3-12.6,27.1-28.7c6.8-14.3,12.8-31.8,16.8-43.9c0.4-0.5,0.7-1,0.9-1.7
			c4.7-14.9,9.4-37.4,11.8-57c0.8-6.3,1.6-12.6,2-18.5c8.7,3.5,18.1,5.9,27.5,7.5c3.1,0.8,3.9,2.8,3.1,6.3
			c-5.5,20.5-15.3,57.8-14.9,87.7c0.4,27.1,9,48.4,35.4,48.4c1.2,0,3.1,0,4.7-0.4c17.9-2.3,29.8-26.5,38-48.6
			c1.3,10.4,3.5,19.1,6.4,26.1c5.1,13,13.4,20.5,23.6,22c1.2,0.4,2.4,0.4,3.5,0.4c2.8,0,3.9-0.4,6.3-1.6
			c8.7-4.7,16.5-17.3,23.2-31.5c1.7-3.9,3.3-7.8,4.9-11.7c0.1,3.3,0.1,6.2,0.2,8.5v3.9c0.8,17.7,1.2,29.9,25.2,31.9
			c0.4,0,1.2,0,2-0.4c5.1-1.2,5.5-5.1,5.1-9c7.1-36.2,17.7-69.2,29.9-93.6c9.4-18.9,19.7-31.5,28.3-35c1.2,0.8,2,3.1,2.8,7.1
			c2.4,7.5,2.8,19.3,2.4,32.6c-0.4,13.8-2.4,29.1-5.1,44.4c-2,7.9-3.5,15.7-5.9,22.8c-7.9,2.4-15.7,5.9-23.2,11.4
			c-12.2,9.4-17.7,20.5-18.1,28.7c0,3.5,0.8,6.7,2.4,9c2,3.1,5.1,5.1,8.7,5.5c6.7,1.2,16.1-2,27.9-11.8c10.6-9,20.1-22.4,27.5-37.8
			c17.4-3.7,33.8-8.7,46-28.5c0.1,0.8,0.3,1.7,0.4,2.5c4.3,24.4,17.3,45.2,40.9,51.5c15.7,4.3,30.3-1.6,42.5-14.6
			c12.6-13,22.8-33.4,31.1-58.2C827.6,775.9,817.3,773.1,815.4,780.2z M740.6,775.1c1.6-14.2,4.3-28.3,8.3-39.7
			c4.3-12.6,10.2-21.6,16.1-21.6c2.8,0.4,4.7,1.6,6.3,3.9c2,3.5,2.8,8.7,2.8,14.6c-0.4,6.7-2,13.8-4.7,21.2
			c-5.5,14.6-15.3,28.7-29.5,36.2C739.8,784.5,740.2,779.8,740.6,775.1z M590.4,725.1c3.1-28.7,7.9-56.6,14.9-77.5
			c6.7-19.7,14.6-32.6,24.4-33.4c1.2,0,2.4,0,3.5,0.4c2.4,0.8,4.3,2,5.5,3.1c3.1,3.1,4.7,7.9,4.7,13.4c0,6.3-1.6,14.2-4.7,22.4
			c-9.8,28.3-33.4,62.5-49.6,82.6L590.4,725.1z M611.2,868.7c-2.8,0.4-3.5,0-3.5-2.8c0-5.5,4.7-13.4,13.8-20.5
			c4.3-3.1,8.7-5.5,13.4-7.5C628.5,855,620.7,867.1,611.2,868.7z"/>
	</g>
	<g>
		<path d="M910.2,556.5V709l25.3,260.3l-25.3,2.5v14.8l39.8-3.9l1.6-0.2L910.2,556.5z M858.9,29.3l-0.2-1.6l-308.7,30h152.5
			l143-13.9l1.3,13.9h14.8L858.9,29.3z M169,94.8l-39.8,3.9l-1.6,0.2l41.4,426V372.4l-25.3-260.3l25.3-2.5V94.8z M376.7,1023.7
			l-143,13.9l-1.3-13.9h-14.8l2.8,28.4l0.2,1.6l308.7-30H376.7z"/>
		<path d="M172.3,61v959.4h734.7V61H172.3z M187,1005.6V75.8h705.2v929.8H187z"/>
	</g>
	<g id="Layer_7_4_">
		<path d="M574.5,916.2c4.4-2.3,9-4.3,13.7-5.9c5-1.7,10.2-2.9,15.5-3.6c2.8-0.3,5.6-0.5,8.3-0.5c6.4,0.1,12.8,0.8,19,2.1
			c8.7,2,17.3,4.6,25.6,7.9c3.6,1.4,7.5,2.9,11.7,4.6c8.6,3.6,17,8,25.7,11.3c10.8,4.4,22.3,6.9,33.9,7.3c4.7,0,9.5-0.6,14-1.9
			c9.6-2.7,17.8-10,17.8-21.3c0-1-0.1-2.1-0.3-3.1c-0.4-2.3-1.3-4.4-2.5-6.3c-3-4.6-8.1-7.3-13.6-7.4l0,0c-2.6,0.1-5.1,0.8-7.5,1.9
			c-2.9,1.6-5,4.3-6,7.4c-0.3,1-0.4,2-0.4,3c-0.2,5.3,3.9,9.7,9.2,9.9c0.1,0,0.3,0,0.4,0c3.1,0,6.6-1.3,6.6-4.5
			c0-1.2-0.5-2.2-1.5-2.9c-1.4-0.8-3.2-0.6-4.5,0.4c-0.2,0.1-0.4,0.1-0.6,0c-0.8,0-1.5-0.4-2-0.9c-0.5-0.5-0.8-1.2-0.8-1.9
			c0.3-3.5,3.3-6.1,6.8-5.9c0.1,0,0.2,0,0.3,0c3,0,5.8,1.5,7.4,4c1.2,1.9,1.8,4.1,1.7,6.3c0,3-0.9,6-2.8,8.4
			c-2.3,2.7-5.3,4.6-8.7,5.6c-4.6,1.4-9.4,2.1-14.2,2.1c-10.6-0.3-21.1-2.6-30.8-6.8c-8-3.4-15.9-7-23.7-10.6
			c-3.7-1.7-7.5-3.4-11.9-4.9c-8.9-3.5-18.1-6.3-27.5-8.3c-6.9-1.5-13.9-2.2-20.9-2.3c-5.5,0-10.9,0.6-16.2,1.8
			c-4.4,1-8.7,2.3-12.9,4.1c-5.7,2.4-11.4,4.7-17,7.6c-4.3,2.2-8.4,4.6-12.4,7.3c-2.7,1.7-5.3,3.7-7.9,5.4l-1.8,1.2l-1.8-1.2
			c-2.7-1.7-5.2-3.7-7.9-5.4c-4-2.7-8.1-5.1-12.4-7.3c-9.7-5.6-20.2-9.6-31.2-12c-4.9-1-9.9-1.5-15-1.5c-11.9,0.2-23.6,2.2-34.9,5.9
			c-4.5,1.4-9,2.9-13.3,4.7s-8.2,3.4-11.9,4.9c-7.9,3.6-15.8,7.3-23.7,10.6c-9.7,4.2-20.2,6.5-30.8,6.8c-4.8,0-9.6-0.7-14.2-2.1
			c-3.4-1-6.4-2.9-8.7-5.6c-1.8-2.4-2.8-5.4-2.8-8.4c0-2.2,0.6-4.4,1.7-6.3c1.7-2.5,4.4-4,7.4-4c3.5-0.4,6.6,2.1,7.1,5.5
			c0,0.1,0,0.2,0,0.3c0,0.7-0.3,1.4-0.8,1.9c-0.5,0.6-1.3,0.9-2,0.9c-0.2,0.1-0.4,0.1-0.6,0c-0.8-0.5-1.8-0.9-2.8-0.9
			c-0.6,0-1.2,0.2-1.7,0.5c-0.9,0.6-1.5,1.7-1.5,2.8c0,3.4,3.4,4.5,6.6,4.5c1.1,0,2.1-0.2,3.2-0.5c3.9-1.5,6.4-5.3,6.4-9.5
			c0-1-0.1-2-0.4-3c-1-3.1-3.1-5.8-6-7.4c-2.4-1.2-5-1.8-7.6-1.9c-1.2,0-2.5,0.1-3.7,0.5c-4,1-7.4,3.4-9.7,6.8
			c-1.2,1.9-2,4.1-2.4,6.3c-0.2,1-0.3,2.1-0.3,3.1c0,2,0.3,4.1,0.9,6c2.7,7.7,9.1,13.4,17,15.3c4.6,1.3,9.3,1.9,14,1.9
			c11.6-0.4,23.1-2.9,33.9-7.3c8.8-3.4,17-7.6,25.7-11.3c4.2-1.8,8.1-3.4,11.7-4.6c14.3-5.3,29-9.9,44.6-9.9c2.7,0,5.3,0.1,8,0.5
			c1.6,0.2,3.4,0.5,4.8,0.8c8.6,1.7,17,4.7,24.8,8.7c3.7,1.9,7.3,4.3,10.8,6.4c4.5,2.8,9.2,5.5,13.6,8.5c-2.1,1.4-4.2,2.7-6.3,4.1
			l-1.8,1.2c-2.1-1.5-4.3-2.9-6.4-4.3c-1.6-1-3.3-1.9-5.1-2.7c-2.7-1.5-5.6-2.8-8.5-3.8c-3.8-1.2-7.7-2.1-11.7-2.5
			c-2.1-0.2-4.1-0.3-6.1-0.3c-2,0-4.8,0-7.3,0.3c-3.5,0.3-6.9,1-10.2,2.3c-2.7,1-5.3,2.4-7.6,4.1c-2.5,1.8-4.5,4.2-5.9,7
			c-1.1,2.2-1.7,4.6-1.8,7c0,1.8,0.4,3.6,1.1,5.3c0.8,1.9,1.9,3.7,3.4,5.2c1.4,1.4,3,2.5,4.8,3.4c3.6,1.6,7.4,2.5,11.2,2.7
			c4.4,0.2,8.8,0,13.2-0.5c1.9-0.3,3.8-0.6,5.6-1.1c3.1-0.6,6.1-1.3,9-2.3c3.7-1.3,7.3-2.8,10.7-4.6c4-2,7.8-4.2,11.5-6.6
			c2.9,2.6,5.7,5.4,8.3,8.4l1,1.2c-2.3,3.3-4.2,6.8-5.8,10.5c-1,2.3-1.7,4.8-2.2,7.3c-0.4,1.9-0.6,3.8-0.6,5.8
			c0,1.1,0.1,2.3,0.3,3.4c0.5,3.1,1.8,6,3.7,8.4c1,1.3,2.3,2.5,3.7,3.4c3.5,2.1,7.9,2.1,11.4,0c1.4-0.9,2.7-2,3.7-3.4
			c1.9-2.4,3.2-5.3,3.7-8.4c0.2-1.1,0.3-2.3,0.3-3.4c0-2-0.2-3.9-0.6-5.8c-0.4-2.5-1.1-5-2.1-7.3c-1.6-3.7-3.6-7.2-5.9-10.5l1-1.2
			c2.6-3,5.3-5.8,8.3-8.4c3.7,2.4,7.6,4.6,11.6,6.6c3.5,1.8,7.1,3.3,10.7,4.6c2.9,1,5.9,1.7,9,2.3c1.9,0.5,3.7,0.8,5.6,1.1
			c4.4,0.5,8.8,0.7,13.3,0.5c3.9-0.3,7.7-1.2,11.2-2.7c1.8-0.9,3.4-2,4.8-3.4c1.5-1.5,2.6-3.2,3.4-5.2c0.7-1.7,1.1-3.5,1.1-5.4
			c0-0.3,0-0.6,0-0.9c-0.2-2.1-0.7-4.2-1.7-6.1c-1.4-2.8-3.4-5.2-6-7c-2.3-1.7-4.8-3.1-7.5-4.1c-3.3-1.2-6.7-2-10.2-2.2
			c-2.4-0.2-4.9-0.4-7.3-0.4c-2.1,0-4.1,0.1-6.1,0.3c-4,0.4-7.9,1.3-11.7,2.5c-2.9,1.1-5.8,2.4-8.6,3.8c-1.7,0.8-3.4,1.7-5,2.7
			c-2.2,1.4-4.3,2.8-6.4,4.3c-0.6-0.4-1.3-0.8-1.9-1.2c-2-1.4-4.2-2.7-6.3-4.1c4.5-3.1,9.1-5.8,13.6-8.5
			C567.3,920.5,570.8,918.2,574.5,916.2z M515.5,945c-2.4,1.2-4.7,2.5-7.2,3.6c-3,1.2-6.1,2.2-9.2,3.1c-1.3,0.4-2.6,0.6-3.9,0.9
			c-3.2,0.7-6.4,1-9.7,1c-1.6,0-3.2-0.1-4.8-0.2c-3.7-0.2-7.3-1.4-10.4-3.4c-2.4-1.4-3.8-4-3.9-6.8c0-1.6,0.5-3.1,1.4-4.4
			c1.1-1.6,2.5-3,4.1-4.1c2-1.3,4.2-2.2,6.5-2.8c3.3-1,6.7-1.6,10.2-1.7c2.8-0.2,5.5-0.2,8.3,0c3.8,0.4,7.6,1.1,11.2,2.1
			c1.5,0.5,3,1,4.4,1.6c1.6,0.7,3.1,1.5,4.7,2.3c2.3,1.2,4.4,2.5,6.5,4.1C521.9,941.4,517.5,944.1,515.5,945L515.5,945z
			 M570.8,936.2l4.7-2.3c1.4-0.6,2.9-1.2,4.4-1.6c3.7-1.1,7.4-1.8,11.3-2.1c1.2-0.1,2.5-0.2,3.7-0.2c1.5,0,3.1,0,4.6,0
			c3.4,0.1,6.9,0.7,10.2,1.7c2.3,0.6,4.5,1.6,6.5,2.8c1.6,1.1,3,2.5,4,4.1c0.9,1.3,1.4,2.8,1.5,4.4c0,0.6-0.1,1.1-0.2,1.7
			c-0.6,2.1-1.9,3.9-3.7,5.1c-3.1,2-6.7,3.2-10.4,3.4c-1.6,0.2-3.3,0.2-4.9,0.2c-3.2,0-6.5-0.3-9.6-1c-1.3-0.3-2.6-0.5-3.9-0.9
			c-3.1-0.8-6.2-1.8-9.2-3.1c-2.4-1.1-4.8-2.4-7.2-3.6c-2.4-1.2-6.4-3.6-8.2-4.7C566.4,938.5,568.5,937.2,570.8,936.2L570.8,936.2z
			 M550.2,977.2c0.1,3-0.8,5.9-2.5,8.3c-0.9,1.2-2.2,1.8-3.7,1.8c-1.4,0.1-2.8-0.6-3.7-1.8c-1.7-2.4-2.6-5.3-2.5-8.3
			c0.1-3.7,1-7.4,2.6-10.7c0.8-2.2,1.9-4.2,3.4-6l0,0c0,1.9,2.7,3.9,3.6,6C549.1,969.8,550,973.5,550.2,977.2z M551,940.4l1.1,0.8
			c-1.2,1.1-1.4,1.2-2.5,2.1c-1.6,1.5-5.6,5.2-5.6,5.2c0,0-3.9-3.7-5.6-5.2c-1.1-0.9-1.3-1.1-2.5-2.1l1.1-0.8
			c2.3-1.6,4.6-3.2,6.8-4.8C546.3,937.1,548.6,938.8,551,940.4L551,940.4z"/>
	</g>
	<g>
		<g>
			<path d="M295.6,324.7c21.8,8.7,30.5,66.4,31.9,94.6c4.7,0,6.9,0.4,8.3,1.8c1.8,2.5,2.5,5.1-2.9,8c-4.4,2.5-23.9,5.8-34.4,7.6
				c-2.5,0.4-4.4,0.4-4.4,0.4c-4.7,0-8-5.8-3.3-8.7c0.7-0.7,2.2-1.4,4-2.5c0-28.6-4-56.2-12-75.4c-5.1-12-12-4.4-16,6.2
				c-8.3,21.8-14.5,58.4-15.2,96.4c-0.4,21.8,4.4,60.2,9.8,76.1c9.1,25.4,15.6,26.1,27.6-6.9c2.5-8,4.4-20.3,4.4-22.1
				c-2.5-0.4-10.9-0.4-14.9,0c-12,0.4-18.1-8.3-11.2-13.4c1.8-2.5,25.4-5.8,38.8-6.5c11.2-0.4,20.3,2.2,22.5,5.1
				c3.6,5.8-2.5,9.4-8.3,10.5c-0.7,23.9-5.1,52.6-25.7,69.3c-13.1,10.5-35.9,6.9-48.2-4c-18.9-17-31.5-67.1-29-112.4
				c2.5-36.6,1.8-99.7,41.7-123.3c4-2.5,8.7-3.6,14.1-4C281.5,321.1,290.2,322.9,295.6,324.7z"/>
			<path d="M450.5,333.4c6.5,10.5,8.7,32.3,7.3,55.5c-1.5,17.4-4.7,35.5-10.2,50.4c-12.7,35.2-29.7,62-67.8,80.5
				c16.7,4.3,40.2,17.8,44.6,18.5c18.1,4.7,23.2,14.1,13.4,18.1c-6.5,2.9-6.9,3.6-20.3-0.7c-12.7-4-23.9-8-36.6-11.2
				c0.4,9.8,4.4,21.4-2.2,26.8c-4.4,4-18.5,5.1-24.3,2.9c-8-3.3-8.3-4.4-9.8-18.9c-1.8-22.1-0.7-155.9,1.5-209.6
				c0.7-16,1.8-18.1,9.1-20.3c5.4-1.8,11.6-0.7,15.2,2.5c2.9,2.2,2.9,3.3,3.6,18.5c0.4,9.1,1.1,16.3,1.5,16.3
				c0.4,0,3.3-4.4,6.2-10.2c6.5-12.7,16.3-23.9,23.6-27.9c6.5-3.3,13.1-4.7,19.6-4.7C435.2,320,445.4,324.7,450.5,333.4z
				 M413.8,347.2c-7.6,9.8-17,34.4-23.2,60.2c-5.4,22.5-12.3,68.2-12,80.1c0,3.6,1.5,2.9,7.3-4c11.2-13.4,23.2-36.3,29.4-55.5
				c8.3-26.5,11.2-60.2,6.5-76.5c-1.5-5.1-2.2-7.6-3.6-8C417.1,343.6,415.6,344.7,413.8,347.2z"/>
			<path d="M581.7,332.7c8.7,9.1,13.1,25.7,15.2,59.1c2.9,51.5-0.7,113.9-4.4,163.9c6.2-0.4,8.7,0,10.2,1.8c1.8,2.9,2.2,5.8-3.6,8.7
				c-4.7,2.5-30.5,6.9-41.3,8.7c-2.5,0.4-4.7,0.4-4.7,0.4c-4.7-0.4-7.6-6.2-2.5-9.1c1.1-1.5,5.4-3.3,10.9-4.7
				c-1.5-3.6-1.8-9.8-1.5-22.1c0.7-19.9,1.8-33-1.1-24.7c-6.2,16.3-20.7,41.3-31.2,46.8c-10.2,5.1-26.8,4.4-38.4-1.8
				c-14.1-7.3-21-21.8-20.7-42.1c0.4-8.3,1.8-17.4,4.4-27.2c7.3-26.5,26.1-48.9,42.1-60.2c22.1-14.9,38.8-5.8,47.1,0.4
				c2.5-22.5,2.9-49.3,1.1-70.7c-1.8-17.8-19.6-9.8-37,6.2c-9.4,11.2-13.4,19.2-17,33.4c9.8,2.5,13.4,3.6,14.1,6.5
				c1.1,2.9,0.7,5.4-5.4,6.5c-4.7,0.7-29-3.3-38.8-5.1c-2.5-0.4-4.4-1.1-4.4-1.1c-4-1.8-5.1-7.6,0.4-9.1c0.7-0.7,4-0.7,7.6-0.7
				c-0.4-1.1-0.4-1.8-0.4-2.9c0.7-25.7,26.8-71.8,74.7-71.4C566.8,322.5,574.5,326.5,581.7,332.7z M542.2,442.2
				c-16,5.4-35.5,39.2-40.2,69.6c-1.8,10.5-1.1,26.8,1.1,32.6c1.1,3.3,1.1,3.3,5.1,1.1c1.8-1.1,6.2-5.4,9.8-9.8
				c17.4-21.8,33-58.4,40.2-87.4c-2.9-4-6.5-6.2-11.2-6.5C545.5,441.8,544,441.8,542.2,442.2z"/>
			<path d="M742.7,323.6c5.1,1.8,3.6,7.6-0.7,9.1c0,0-8,0.7-9.8,0.7c0.4,1.4,0.4,1.8,0.7,3.6c0.4,4.4,1.8,19.6,2.9,33.7
				c1.8,29,2.2,114.9,0.7,169c-0.4,13.1-0.7,21-1.5,25.7c2.5,0.4,4.7,0.7,5.4,1.4c5.1,1.5,3.6,7.6-0.7,9.1c0,0-1.8,0-4.4,0.4
				c-10.5,1.1-35.5,2.9-40.6,1.8c-6.2-1.5-6.5-4.4-5.1-7.3c0.7-2.2,3.6-3.3,9.8-4c-0.4-1.8-0.4-3.6-0.4-6.9
				c0.4-8.7,0.4-17.4,0.4-26.8c-10.9,22.8-24.7,33.7-41,33.4c-12.7,0-27.9-4.4-36.3-28.3c-2.5-9.1-6.5-44.2-3.6-64.9
				c4-32.3,12.7-91.7,52.9-85.9c9.4,1.5,19.6,10.9,27.9,21.8c0-26.5,0.7-51.8,2.2-74.3c-2.2,0-4,0-4.7-0.4c-6.2-1.5-6.5-4.4-5.1-6.9
				c1.1-2.9,4.7-3.6,15.2-5.1c3.6-0.4,9.4-0.7,14.9-1.1C731.1,321.4,740.5,322.2,742.7,323.6z M654.2,455.2
				c-2.9,24.3-4,100.4,18.5,84.1c8.7-6.2,18.5-27.2,26.8-55.5v-43.1c-9.4-18.5-18.5-26.8-26.1-26.8
				C663.3,413.9,656,429.5,654.2,455.2z"/>
			<path d="M759.7,425.1c3.3-52.6,18.5-102.2,59.5-102.6c43.1-0.4,43.9,50.4,46.4,84.1c3.3,33.4-2.2,38.4-13.8,40.2
				c-19.2,2.9-53.3,1.8-53.3,1.8c0.4,2.2-0.4,7.3,0,17c0.7,17.4,4.4,44.6,7.3,61.6c5.1,26.8,14.1,29.7,20.7-0.7
				c5.1-16.3,4.4-39.5,8-53.3c2.2-7.6,27.9-5.8,29.4-1.8c3.3,6.9,0.4,32.6-7.6,57.7c-4.4,14.1-12.7,26.8-21.4,31.5
				c-6.9,4.4-17.4,6.2-26.1,6.2C765.5,566.2,756.8,470.8,759.7,425.1z M813,345c-6.5,6.9-9.4,21-11.2,34.1c-1.8,10.2-2.5,54-2.5,54
				c12.3,0,21.4,0,33-0.4C832.6,423,835.9,334.9,813,345z"/>
		</g>
	</g>
	<g>
		<path d="M500.1,203.6c1.4,0,4.1-1,4.1-4.6c0-3.6-2.7-4.6-4.1-4.6c-1.4,0-4.1,1-4.1,4.6C496,202.7,498.7,203.6,500.1,203.6z"/>
		<path d="M860.9,216.7c-1.4-1.7-4-1.9-5.7-0.4c-2.2,1.8-4.3,3.9-6.5,6c-10.6,10.2-22.7,21.7-47.7,21.7c-12.9,0-22.9-6.8-29.6-20.1
			c-0.7-1.4-1.4-2.9-2-4.4c5.7-8.2,12.2-28.2,16.2-44.8c3.6-15,8.9-42.2,3.4-55.1c-2.9-6.8-8-7.8-10.8-7.8
			c-7.1,0-13.3,7.5-17.8,21.8c-3.9,12.3-6.1,28.3-6.1,43.9c0,6.6,0.4,14.7,1.7,23c-12.8-4.8-29.2-1.2-39.5,6.3
			c-3.8,2.7-6.7,5.9-8.7,9.3c-15.2,5-48.3,12.9-66.1,14.1c0,0-0.1,0-0.1,0c-14.6,1.5-17.4-3.4-19.8-7.6c-1.5-2.6-3.6-6.2-8.3-6.2
			c-4.6,0-8.5,4.7-13,13.5v-12.9c0-2.2-1.8-4-4-4c-1.9,0-3.5,1.3-3.9,3.1c-0.4,0.2-0.7,0.5-1,0.9c-2.8,3.4-27.9,27.2-51.1,27.2
			c-17.4,0-26.5-6.1-31.1-11.3c-4.6-5.2-6.8-11.8-6-18.5c0.3-2.2-1.3-4.2-3.5-4.4c-2.2-0.3-4.2,1.3-4.5,3.5
			c-0.1,1.2-0.2,2.5-0.2,3.7c0,0-0.1,0.1-0.1,0.1c-2.8,3.8-32.4,26.9-63.1,26.9c-16.3,0-19.3-9.2-22.5-19c-2.3-7-4.9-15-13.8-15
			c-9.3,0-14,10.6-17,20.8c-0.4-2.9-0.8-6.2-1.2-9.7c17.7-19.5,36-79.6,27.1-101c-2.3-5.4-6.3-8.4-11.5-8.4c0,0,0,0,0,0
			c-5,0-9.4,2.9-12.9,8.7c-11.1,18-13.5,63-11.2,95.2c-0.4,0.2-0.8,0.4-1.2,0.7c-0.8,0.7-1.6,1.4-2.4,2.1
			C353.8,228.5,336,244,307.5,244c-12.9,0-22.9-6.8-29.6-20.1c-0.7-1.4-1.4-2.9-2-4.4c5.7-8.2,12.2-28.2,16.2-44.8
			c1.7-7,3.7-16.7,4.9-26.3c7,0.5,13.8,0.8,20.3,0.8c13.4,0,25.4-1.3,34.6-5c2.1-0.8,3-3.2,2.2-5.2c-0.8-2.1-3.2-3-5.2-2.2
			c-12.2,5-30.9,5-51.2,3.7c0.5-8.1,0-15.6-2.2-20.9c-2.9-6.8-8-7.8-10.8-7.8c-7.1,0-13.3,7.5-17.8,21.8c-0.4,1.4-0.8,2.8-1.2,4.2
			c-24.9-2.1-47.9-3.4-61.6,2.5c-2,0.9-3,3.2-2.1,5.3c0.9,2,3.2,3,5.3,2.1c11.8-5,33.8-3.9,56.6-2c-2,9.8-3,20.9-3,31.7
			c0,13.9,1.7,33.8,9.9,50c8.1,16.1,20.8,24.6,36.8,24.6c30.8,0,49.8-15.9,62.5-26.9c1.2,10.4,2.9,18.7,5,23.1
			c0,0.1,0.1,0.2,0.1,0.3c0.1,0.1,0.2,0.3,0.3,0.4c0,0,0,0.1,0.1,0.1c0.1,0.1,0.2,0.3,0.3,0.4c0.1,0.1,0.2,0.2,0.3,0.3
			c0.1,0,0.1,0.1,0.2,0.1c0.1,0.1,0.2,0.2,0.3,0.2c0,0,0.1,0,0.1,0c0.1,0.1,0.3,0.2,0.5,0.2l0,0c0.1,0,0.2,0.1,0.3,0.1
			c0,0,0.1,0,0.1,0c0.2,0.1,0.3,0.1,0.5,0.1c0.1,0,0.2,0,0.2,0c0.1,0,0.3,0,0.4,0c0.3,0,0.5,0,0.7-0.1c0.2,0,0.3-0.1,0.5-0.1
			c0.8-0.2,1.4-0.7,1.9-1.3c0.1-0.1,0.2-0.2,0.2-0.3c0,0,0.1-0.1,0.1-0.1c0.1-0.1,0.1-0.3,0.2-0.4c0,0,0,0,0,0
			c0-0.1,0.1-0.2,0.1-0.3c0-0.1,0-0.1,0.1-0.2c0.5-1.7,1.1-3.8,1.7-6.3c1.9-7.6,5.8-23.4,11.5-23.4c2.7,0,3.8,2.1,6.2,9.4
			c3.2,9.8,8,24.5,30.2,24.5c27.8,0,53.8-16.6,64.6-25.5c1.4,4.2,3.6,8.1,6.7,11.6c5.7,6.4,16.7,14,37.1,14c21,0,42.1-15.8,52-24.8
			v21.4c0,2.2,1.8,4,4,4c2.1,0,3.8-1.5,4-3.5c0.6-1.1,1.2-2.6,2-4.4c5.1-11.9,8.8-18.7,11-20.3c0.4,0.5,0.9,1.3,1.3,2
			c2.9,5.1,7.8,13.5,27.5,11.6c0,0,0.1,0,0.1,0c16.9-1.2,45.2-7.7,62.1-12.7c-0.5,3.8,0,7.8,1.6,11.8c2.8,7.2,9.9,11.2,19.1,11.2
			c3.1,0,6.4-0.4,9.9-1.4c11.6-3.1,23.1-11,28.2-21.4c0.3,0.6,0.6,1.2,0.9,1.8c8.1,16.1,20.8,24.6,36.8,24.6
			c28.2,0,42.1-13.3,53.2-23.9c2.1-2,4.2-4,6.1-5.7C862.2,220.9,862.4,218.4,860.9,216.7z M274.7,135.9c4-12.8,8.4-16.2,10.1-16.2
			c0.7,0,2.1,0,3.3,2.9c1.7,3.9,2.1,10,1.7,17.2c-5.2-0.4-10.4-0.9-15.7-1.3c-0.1,0-0.2,0-0.3,0
			C274.1,137.6,274.4,136.8,274.7,135.9z M268.9,177.4c0-10.7,1.1-21.5,3-31c0.5,0,1,0.1,1.5,0.1c5.2,0.5,10.4,0.9,15.6,1.3
			c-2.6,21.2-10.4,48.2-16.6,61.3C270.2,199.8,268.9,189,268.9,177.4z M376.8,208.9c-1.5-30,1-69.1,10.4-84.4c2-3.2,4-4.8,6.1-4.8h0
			c0.9,0,2.6,0,4.1,3.5C403.8,138.6,391.6,186.1,376.8,208.9z M733.1,239.3c-7.6,2.1-16.7,1.8-19.4-5c-4.1-10.5,3-17.7,7.6-21.1
			c5.9-4.3,14.2-7,22-7c5.4,0,10.5,1.3,14.5,4.1c0,0.3,0,0.5,0,0.8C760,224,746.9,235.6,733.1,239.3z M762.5,177.4
			c0-14.8,2.1-29.9,5.7-41.5c4-12.8,8.4-16.2,10.1-16.2c0.7,0,2.1,0,3.3,2.9c6.7,15.7-6.3,66.7-15.6,86.4
			C763.8,199.8,762.5,189,762.5,177.4z"/>
	</g>
</g>
</svg>
